<svg width="112" height="144" viewBox="0 0 112 144" fill="none" xmlns="http://www.w3.org/2000/svg">
<path d="M32 139C32 141.761 29.7473 144.041 27.019 143.615C11.7115 141.222 0 127.979 0 112C0 96.0212 11.7115 82.7778 27.019 80.3854C29.7473 79.959 32 82.2386 32 85V139Z" fill="white" style="fill:white;fill-opacity:1;"/>
<path d="M64 139C64 141.761 61.7614 144 59 144H53C50.2386 144 48 141.761 48 139V64H32C14.3269 64 0 49.6731 0 32C0 14.3269 14.3269 0 32 0H59C61.7614 0 64 2.23858 64 5V139Z" fill="white" style="fill:white;fill-opacity:1;"/>
<path d="M107 0C109.761 0 112 2.23858 112 5V139C112 141.761 109.761 144 107 144H85C82.2386 144 80 141.761 80 139V5C80 2.23857 82.2386 0 85 0H107Z" fill="white" style="fill:white;fill-opacity:1;"/>
</svg>
